<svg width="26" height="22" viewBox="0 0 26 22" fill="none" xmlns="http://www.w3.org/2000/svg">
<path d="M23.6858 7.524L21.9803 2.50678C21.7329 1.77648 21.2571 1.14119 20.6203 0.691177C19.9836 0.241164 19.2185 -0.000682251 18.4335 1.44561e-06H7.06644C6.28152 -0.000682251 5.51635 0.241164 4.87964 0.691177C4.24293 1.14119 3.76707 1.77648 3.51967 2.50678L1.81423 7.524C1.36121 7.71036 0.974324 8.0236 0.702012 8.42449C0.429699 8.82538 0.28406 9.29612 0.283325 9.77778V15.8889C0.283325 16.8092 0.810665 17.6024 1.57861 18.0192C1.56241 18.0999 1.52999 18.1732 1.52999 18.2576V20.7778C1.52999 21.1019 1.66134 21.4128 1.89513 21.642C2.12893 21.8712 2.44602 22 2.77666 22H4.02333C4.35396 22 4.67106 21.8712 4.90485 21.642C5.13865 21.4128 5.26999 21.1019 5.26999 20.7778V18.3333H20.23V20.7778C20.23 21.1019 20.3613 21.4128 20.5951 21.642C20.8289 21.8712 21.146 22 21.4767 22H22.7233C23.054 22 23.3711 21.8712 23.6049 21.642C23.8386 21.4128 23.97 21.1019 23.97 20.7778V18.2576C23.97 18.1732 23.9376 18.0987 23.9214 18.0192C24.3121 17.8104 24.6384 17.5025 24.8663 17.1278C25.0941 16.753 25.2151 16.3252 25.2167 15.8889V9.77778C25.2167 8.76456 24.5834 7.89433 23.6858 7.524ZM2.77666 15.8889V9.77778H22.7233L22.7258 15.8889H2.77666ZM7.06644 2.44445H18.4323C18.9696 2.44445 19.4458 2.77933 19.6154 3.28045L20.9942 7.33333H4.50579L5.88335 3.28045C5.96607 3.03697 6.12485 2.8252 6.3372 2.67515C6.54955 2.5251 6.80468 2.44438 7.06644 2.44445V2.44445Z" fill="#B82C00"/>
<path d="M5.89333 14.6667C6.9261 14.6667 7.76334 13.8458 7.76334 12.8333C7.76334 11.8208 6.9261 11 5.89333 11C4.86055 11 4.02332 11.8208 4.02332 12.8333C4.02332 13.8458 4.86055 14.6667 5.89333 14.6667Z" fill="#B82C00"/>
<path d="M19.6067 14.6667C20.6394 14.6667 21.4767 13.8458 21.4767 12.8333C21.4767 11.8208 20.6394 11 19.6067 11C18.5739 11 17.7367 11.8208 17.7367 12.8333C17.7367 13.8458 18.5739 14.6667 19.6067 14.6667Z" fill="#B82C00"/>
</svg>
