<svg width="52" height="51" viewBox="0 0 52 51" fill="none" xmlns="http://www.w3.org/2000/svg">
<path d="M43.8371 7.46878C40.851 4.50352 37.1746 2.31533 33.1335 1.09802C29.0923 -0.119286 24.8112 -0.328134 20.6694 0.489978C16.5276 1.30809 12.6529 3.12791 9.38849 5.78824C6.12409 8.44857 3.57078 11.8673 1.95472 15.7416C0.338658 19.6159 -0.290265 23.8261 0.123659 27.9994C0.537583 32.1727 1.98158 36.1803 4.32773 39.667C6.67389 43.1538 9.84978 46.0122 13.5741 47.989C17.2984 49.9658 21.4562 51 25.6792 51V35.5397C24.0165 35.5397 22.3796 35.1325 20.9132 34.3542C19.4469 33.5759 18.1965 32.4506 17.2728 31.0778C16.3491 29.705 15.7806 28.1272 15.6176 26.4841C15.4546 24.841 15.7023 23.1833 16.3385 21.658C16.9748 20.1326 17.9801 18.7866 19.2653 17.7392C20.5505 16.6918 22.0761 15.9753 23.7068 15.6532C25.3375 15.3311 27.023 15.4133 28.614 15.8926C30.2051 16.3719 31.6526 17.2334 32.8282 18.4009L43.8371 7.46878Z" fill="#FECE54"/>
</svg>
