<svg width="119" height="80" viewBox="0 0 119 80" fill="none" xmlns="http://www.w3.org/2000/svg">
<path d="M102.445 0H0.939026V66.6667H102.445V0ZM94.6366 60H8.74716V6.66667H94.6366V60Z" fill="#FECE54"/>
<path d="M110.253 16.6666V73.3333H20.4593V80H118.061V16.6666H110.253Z" fill="#FECE54"/>
<path d="M51.6919 49.6791C61.3788 49.6791 69.2602 42.3589 69.2602 33.3612C69.2602 24.3635 61.3788 17.0433 51.6919 17.0433C42.0049 17.0433 34.1236 24.3633 34.1236 33.3612C34.1236 42.3591 42.0049 49.6791 51.6919 49.6791ZM51.6919 23.7099C57.0736 23.7099 61.452 28.0395 61.452 33.3612C61.452 38.6829 57.0736 43.0124 51.6919 43.0124C46.3101 43.0124 41.9317 38.6829 41.9317 33.3612C41.9317 28.0395 46.3101 23.7099 51.6919 23.7099Z" fill="#FECE54"/>
<path d="M16.5553 15H24.3634V51.6667H16.5553V15Z" fill="#FECE54"/>
<path d="M79.0203 15H86.8284V51.6667H79.0203V15Z" fill="#FECE54"/>
</svg>
