<svg width="91" height="80" viewBox="0 0 91 80" fill="none" xmlns="http://www.w3.org/2000/svg">
<path d="M90.1996 7.45992C63.3714 -1.68648 34.2106 -2.44193 6.90667 5.30211C5.82137 5.55118 4.79953 6.00743 3.90215 6.64362C3.00478 7.2798 2.25029 8.08288 1.68371 9.00489C1.11714 9.92691 0.750103 10.949 0.604522 12.01C0.458942 13.0711 0.537801 14.1494 0.836392 15.1806C2.33079 20.932 4.51058 27.5402 7.12859 33.5314C7.17353 33.6714 7.24375 33.6041 7.24375 33.464C6.86454 30.6543 9.11737 27.1064 13.5359 25.8161C34.7706 19.335 57.6231 19.6252 78.6714 26.6431C79.4477 26.8977 80.2694 27.0008 81.0879 26.946C81.9065 26.8913 82.7053 26.6799 83.4373 26.3244C84.1693 25.9689 84.8197 25.4764 85.35 24.876C85.8804 24.2756 86.28 23.5794 86.5254 22.8285C89.1434 14.7469 90.1996 9.25943 90.4608 7.88555C90.5058 7.62963 90.2698 7.53265 90.1996 7.46261V7.45992ZM25.4715 25.2396C22.2551 25.8834 17.8085 26.8963 14.4713 27.9577C7.79994 30.164 8.10893 37.9493 11.6623 40.4331C11.9236 38.9892 13.5359 37.0253 15.3337 36.3626C21.9939 33.8519 29.1456 32.3514 36.376 31.7318C32.7019 30.3014 29.1176 28.2513 25.5192 25.2369L25.4715 25.2396ZM78.5815 40.8264C68.9968 36.5076 58.6066 34.0752 48.025 33.6731C37.4434 33.2711 26.8851 34.9074 16.9742 38.4854C13.7972 39.6357 11.8084 43.3425 13.7972 46.8607C17.2715 52.8846 21.2143 58.6488 25.5922 64.1043C24.963 62.0138 26.0754 58.1427 30.3451 56.8766C42.1542 53.3961 54.5448 54.8723 62.7808 58.07C65.1067 58.967 68.3988 58.4229 70.2443 55.7721C73.3916 51.1226 76.2542 46.3013 78.8175 41.3329C78.9326 41.1093 78.8175 40.9422 78.5815 40.8264ZM59.4465 68.7351C55.992 67.0622 52.8327 64.8796 50.084 62.2671C48.8116 61.0467 46.9379 59.293 44.9632 57.2025C40.4547 57.2025 36.0783 57.6363 31.3985 59.0694C27.0529 60.3733 26.6456 65.1872 28.5473 67.6979C31.7636 71.5421 34.0193 73.6164 37.6176 77.1831C39.5246 78.9769 42.0854 79.9873 44.7565 79.9999C47.4277 80.0125 49.9987 79.0262 51.9239 77.2505C54.733 74.5566 56.4605 72.7597 59.6347 69.3089C59.8229 69.1257 59.7499 68.8051 59.4437 68.7351H59.4465Z" fill="#FECE54"/>
</svg>
