<svg width="25" height="22" viewBox="0 0 25 22" fill="none" xmlns="http://www.w3.org/2000/svg">
<path d="M3.70946 4.58333C3.70946 3.36776 4.16652 2.20197 4.9801 1.34243C5.79367 0.482886 6.89711 0 8.04768 0H16.7241C17.8747 0 18.9781 0.482886 19.7917 1.34243C20.6053 2.20197 21.0623 3.36776 21.0623 4.58333V7.425C22.0422 7.63632 22.9229 8.19883 23.5553 9.01734C24.1878 9.83585 24.5331 10.8601 24.5329 11.9167V21.0833C24.5329 21.3264 24.4415 21.5596 24.2788 21.7315C24.1161 21.9034 23.8954 22 23.6653 22C23.4351 22 23.2145 21.9034 23.0517 21.7315C22.889 21.5596 22.7976 21.3264 22.7976 21.0833V16.5H1.97418V21.0833C1.97418 21.3264 1.88277 21.5596 1.72005 21.7315C1.55734 21.9034 1.33665 22 1.10653 22C0.876422 22 0.655733 21.9034 0.493018 21.7315C0.330304 21.5596 0.238892 21.3264 0.238892 21.0833V11.9167C0.238688 10.8601 0.584026 9.83585 1.21646 9.01734C1.84889 8.19883 2.72958 7.63632 3.70946 7.425V4.58333ZM1.97418 14.6667H22.7976V11.9167C22.7976 11.1873 22.5234 10.4878 22.0352 9.97212C21.5471 9.4564 20.885 9.16667 20.1947 9.16667H4.57711C3.88677 9.16667 3.2247 9.4564 2.73656 9.97212C2.24841 10.4878 1.97418 11.1873 1.97418 11.9167V14.6667ZM19.327 4.58333C19.327 3.85399 19.0528 3.15451 18.5647 2.63879C18.0765 2.12306 17.4144 1.83333 16.7241 1.83333H8.04768C7.35734 1.83333 6.69527 2.12306 6.20713 2.63879C5.71899 3.15451 5.44475 3.85399 5.44475 4.58333V7.33333H7.18004V6.41667C7.18004 6.17355 7.27145 5.94039 7.43416 5.76849C7.59688 5.59658 7.81757 5.5 8.04768 5.5H10.6506C10.8807 5.5 11.1014 5.59658 11.2641 5.76849C11.4268 5.94039 11.5183 6.17355 11.5183 6.41667V7.33333H13.2535V6.41667C13.2535 6.17355 13.3449 5.94039 13.5077 5.76849C13.6704 5.59658 13.8911 5.5 14.1212 5.5H16.7241C16.9542 5.5 17.1749 5.59658 17.3376 5.76849C17.5003 5.94039 17.5918 6.17355 17.5918 6.41667V7.33333H19.327V4.58333Z" fill="#B82C00"/>
</svg>
