<svg width="88" height="75" viewBox="0 0 88 75" fill="none" xmlns="http://www.w3.org/2000/svg">
<path fill-rule="evenodd" clip-rule="evenodd" d="M44.0336 11.342L78.7942 43.9676V66.8436C78.7942 69.0068 77.8786 71.0814 76.2489 72.6111C74.6192 74.1407 72.4088 75 70.1041 75H17.9632C15.6584 75 13.448 74.1407 11.8183 72.6111C10.1886 71.0814 9.27303 69.0068 9.27303 66.8436V43.9676L44.0336 11.342ZM73.0008 7.02996V26.0616L61.4139 15.1864V7.02996C61.4139 6.30889 61.7191 5.61735 62.2623 5.10748C62.8056 4.5976 63.5424 4.31116 64.3106 4.31116H70.1041C70.8723 4.31116 71.6091 4.5976 72.1523 5.10748C72.6956 5.61735 73.0008 6.30889 73.0008 7.02996Z" fill="#FECE54"/>
<path fill-rule="evenodd" clip-rule="evenodd" d="M39.9377 1.59206C41.0241 0.572663 42.4974 0 44.0336 0C45.5699 0 47.0432 0.572663 48.1296 1.59206L86.6385 37.7304C87.1824 38.2409 87.488 38.9333 87.488 39.6553C87.488 40.3773 87.1824 41.0697 86.6385 41.5802C86.0946 42.0907 85.3569 42.3775 84.5877 42.3775C83.8184 42.3775 83.0807 42.0907 82.5368 41.5802L44.0336 5.43644L5.53052 41.5802C4.98659 42.0907 4.24887 42.3775 3.47964 42.3775C2.71042 42.3775 1.97269 42.0907 1.42877 41.5802C0.884844 41.0697 0.579269 40.3773 0.579269 39.6553C0.579269 38.9333 0.884844 38.2409 1.42877 37.7304L39.9377 1.59206Z" fill="#FECE54"/>
</svg>
