<svg width="26" height="22" viewBox="0 0 26 22" fill="none" xmlns="http://www.w3.org/2000/svg">
<path d="M23.5322 12.1245H3.58555V3.89499C3.58459 3.58507 3.65348 3.27806 3.78823 2.99173C3.92298 2.7054 4.12092 2.44544 4.37059 2.2269L4.39137 2.20862C4.78265 1.86473 5.28501 1.63556 5.82982 1.5524C6.37463 1.46924 6.93533 1.53616 7.43531 1.74401C6.96312 2.43502 6.76686 3.2451 6.87771 4.04553C6.98856 4.84597 7.40016 5.59083 8.04711 6.16177L8.61596 6.66245L7.56891 7.58407L8.74421 8.61852L9.79125 7.69695L15.5929 2.59065L16.6399 1.66908L15.4646 0.634576L14.4175 1.55615L13.8486 1.05547C13.1676 0.4577 12.2698 0.0892122 11.3118 0.0142202C10.3537 -0.0607718 9.39616 0.162487 8.60593 0.645092C7.77265 0.181911 6.78516 -0.018047 5.80568 0.0780649C4.82621 0.174177 3.913 0.560643 3.21607 1.17398L3.19529 1.19227C2.79077 1.54636 2.47006 1.96756 2.25173 2.43149C2.0334 2.89541 1.92178 3.39284 1.92333 3.89499V12.1245H0.261108V13.5876H1.92333V14.9912C1.92329 15.1091 1.9449 15.2263 1.98733 15.3381L3.53361 19.4209C3.61613 19.6395 3.7748 19.8296 3.98709 19.9643C4.19937 20.099 4.45448 20.1714 4.71618 20.1712H5.38626L4.78028 22H6.51174L7.11778 20.1712H17.9274L18.5507 22H20.2857L19.6624 20.1712H20.7392C21.0009 20.1714 21.2561 20.0991 21.4684 19.9644C21.6807 19.8297 21.8394 19.6395 21.9219 19.4209L23.4681 15.3381C23.5105 15.2263 23.5322 15.1091 23.5322 14.9912V13.5876H25.1944V12.1245H23.5322ZM9.22256 2.08997C9.6805 1.68779 10.301 1.46191 10.9479 1.46191C11.5948 1.46191 12.2153 1.68779 12.6733 2.08997L13.242 2.59065L9.79141 5.62777L9.22256 5.12718C8.76565 4.72411 8.50904 4.17797 8.50904 3.60858C8.50904 3.03919 8.76565 2.49305 9.22256 2.08997V2.08997ZM21.87 14.9317L20.4399 18.7082H5.01569L3.58555 14.9317V13.5876H21.87V14.9317Z" fill="#B82C00"/>
</svg>
